<svg width="25" height="24" viewBox="0 0 25 24" fill="none" xmlns="http://www.w3.org/2000/svg">
<path d="M12.5 22C18.0228 22 22.5 17.5228 22.5 12C22.5 11.094 22.3795 10.2162 22.1537 9.38161C22.0684 9.06633 21.6987 8.94083 21.4028 9.0791C20.8248 9.34916 20.18 9.5 19.5 9.5C17.0147 9.5 15 7.48528 15 5C15 4.31996 15.1508 3.67516 15.4209 3.09722C15.5592 2.80131 15.4337 2.4316 15.1184 2.3463C14.2838 2.12048 13.406 2 12.5 2C6.97715 2 2.5 6.47715 2.5 12C2.5 13.5997 2.87562 15.1116 3.54346 16.4525C3.72094 16.8088 3.78001 17.2161 3.67712 17.6006L3.08151 19.8267C2.82295 20.793 3.70701 21.677 4.67335 21.4185L6.89939 20.8229C7.28393 20.72 7.69121 20.7791 8.04753 20.9565C9.38837 21.6244 10.9003 22 12.5 22Z" fill="#363062"/>
<circle cx="19.5" cy="5" r="3" fill="#363062"/>
</svg>
