<svg width="19" height="24" viewBox="0 0 19 24" fill="none" xmlns="http://www.w3.org/2000/svg">
<g clip-path="url(#clip0_606_8655)">
<path d="M5.65527 17.7786C6.36605 18.6631 7.01294 19.5949 7.59128 20.5672C8.08507 21.4815 8.29092 22.1015 8.65179 23.2032C8.87311 23.8119 9.07313 23.9936 9.50317 23.9936C9.97179 23.9936 10.1844 23.6845 10.3487 23.2066C10.6898 22.1661 10.9574 21.3721 11.3797 20.6218C12.2083 19.1733 13.238 17.8862 14.2497 16.6491C14.5236 16.299 16.2944 14.2592 17.0916 12.6498C17.0916 12.6498 18.0714 10.8818 18.0714 8.4127C18.0714 6.10307 17.1051 4.50122 17.1051 4.50122L14.3231 5.22881L12.6336 9.57438L12.2156 10.1736L12.132 10.2821L12.0208 10.418L11.8257 10.6351L11.5469 10.9073L10.0424 12.1043L6.28099 14.2252L5.65527 17.7786Z" fill="#34A853"/>
<path d="M1.77319 12.3527C2.69121 14.4004 4.46147 16.2005 5.6592 17.7802L12.0209 10.421C12.0209 10.421 11.1246 11.5657 9.49886 11.5657C7.68795 11.5657 6.22498 10.1535 6.22498 8.37276C6.22498 7.15163 6.97726 6.31274 6.97726 6.31274L2.6588 7.44277L1.77319 12.3527Z" fill="#FBBC04"/>
<path d="M12.0919 0.378483C14.2047 1.04375 16.0132 2.44039 17.107 4.49988L12.0228 10.4167C12.0228 10.4167 12.775 9.56263 12.775 8.3491C12.775 6.52693 11.2039 5.16566 9.50651 5.16566C7.90144 5.16566 6.97961 6.30844 6.97961 6.30844V2.58092L12.0919 0.378418V0.378483Z" fill="#4285F4"/>
<path d="M2.93848 2.99281C4.20042 1.51834 6.42095 0 9.48229 0C10.9676 0 12.0865 0.380796 12.0865 0.380796L6.97475 6.31167H3.35299L2.93848 2.99281Z" fill="#1A73E8"/>
<path d="M1.77314 12.3527C1.77314 12.3527 0.928589 10.7376 0.928589 8.39776C0.928589 6.18629 1.8089 4.25321 2.93852 2.99292L6.97767 6.31231L1.77314 12.3527Z" fill="#EA4335"/>
</g>
<defs>
<clipPath id="clip0_606_8655">
<rect width="17.1429" height="24" fill="white" transform="translate(0.928589)"/>
</clipPath>
</defs>
</svg>
